<?xml version="1.0" encoding="UTF-8" standalone="no"?>
<!DOCTYPE svg PUBLIC "-//W3C//DTD SVG 1.1//EN" "http://www.w3.org/Graphics/SVG/1.1/DTD/svg11.dtd">
<svg width="100%" height="100%" viewBox="0 0 4512 3952" version="1.1" xmlns="http://www.w3.org/2000/svg" xmlns:xlink="http://www.w3.org/1999/xlink" xml:space="preserve" xmlns:serif="http://www.serif.com/" style="fill-rule:evenodd;clip-rule:evenodd;stroke-linejoin:round;stroke-miterlimit:2;">
    <g transform="matrix(1,0,0,1,-11.1263,223.161)">
        <g>
            <g>
                <path d="M3189.46,1937.62L3573.99,1934.5C3829.25,1932.43 3995.47,1986 4072.66,2095.22C4149.85,2204.43 4175.18,2364.88 4148.66,2576.57C4130.9,2718.38 4090.64,2854.21 4027.88,2984.06C3965.12,3113.92 3887.89,3218.74 3796.18,3298.53C3704.47,3378.32 3590.98,3435.18 3455.71,3469.13C3388.52,3488.15 3261.14,3498.43 3073.58,3499.95L2783.56,3502.3L3189.46,1937.62Z" style="fill:white;"/>
                <path d="M3690.62,5.691L3965.94,3.458C4154.92,1.925 4280.97,21.947 4344.09,63.524C4407.2,105.1 4453.42,171.965 4482.73,264.117C4512.04,356.269 4518.72,466.056 4502.75,593.478C4469.28,860.654 4377.86,1064.65 4228.5,1205.48C4079.13,1346.3 3854.26,1417.93 3553.87,1420.36L3323.15,1422.24L3690.62,5.686L3690.62,5.691Z" style="fill:white;"/>
                <path d="M3189.46,1937.62L2783.56,3502.3L2367.04,3505.68L2787.07,1940.88L3189.46,1937.62L3189.46,1937.62Z" style="fill:white;"/>
                <path d="M3690.62,5.691L3323.15,1422.24L2925.6,1425.46L3305.94,8.815L3690.62,5.695L3690.62,5.691Z" style="fill:white;"/>
                <path d="M1707.19,0.001L1330.63,42.904L1722.24,3480.02L2034.16,3444.49L2080.78,3278.92L1707.19,-0.001L1707.19,0.001Z" style="fill:white;"/>
                <path d="M341.607,3487.96L1302.41,0L1707.19,0L780.339,3487.96L341.607,3487.96Z" style="fill:white;fill-rule:nonzero;"/>
                <path d="M19.056,3487.96L996.881,0L1408.83,0L465.56,3487.96L19.056,3487.96Z" style="fill:white;fill-rule:nonzero;"/>
                <path d="M1707.19,3487.96L2685.01,0L3016.33,0L2040.8,3487.96L1707.19,3487.96Z" style="fill:white;fill-rule:nonzero;"/>
            </g>
        </g>
    </g>
</svg>
